<?xml version="1.0" encoding="UTF-8" standalone="no"?>
<!-- Created with Inkscape (http://www.inkscape.org/) -->

<svg
   xmlns:dc="http://purl.org/dc/elements/1.1/"
   xmlns:cc="http://creativecommons.org/ns#"
   xmlns:rdf="http://www.w3.org/1999/02/22-rdf-syntax-ns#"
   xmlns:svg="http://www.w3.org/2000/svg"
   xmlns="http://www.w3.org/2000/svg"
   xmlns:sodipodi="http://sodipodi.sourceforge.net/DTD/sodipodi-0.dtd"
   xmlns:inkscape="http://www.inkscape.org/namespaces/inkscape"
   width="256"
   height="256"
   id="svg3044"
   version="1.1"
   inkscape:version="0.48.3.1 r9886"
   sodipodi:docname="preciosa.svg">
  <defs
     id="defs3046" />
  <sodipodi:namedview
     id="base"
     pagecolor="#ffffff"
     bordercolor="#666666"
     borderopacity="1.0"
     inkscape:pageopacity="0.0"
     inkscape:pageshadow="2"
     inkscape:zoom="1.2724609"
     inkscape:cx="164.10021"
     inkscape:cy="185.85039"
     inkscape:document-units="px"
     inkscape:current-layer="layer1"
     showgrid="false"
     inkscape:window-width="1434"
     inkscape:window-height="851"
     inkscape:window-x="0"
     inkscape:window-y="25"
     inkscape:window-maximized="1" />
  <metadata
     id="metadata3049">
    <rdf:RDF>
      <cc:Work
         rdf:about="">
        <dc:format>image/svg+xml</dc:format>
        <dc:type
           rdf:resource="http://purl.org/dc/dcmitype/StillImage" />
        <dc:title />
      </cc:Work>
    </rdf:RDF>
  </metadata>
  <g
     inkscape:label="Capa 1"
     inkscape:groupmode="layer"
     id="layer1"
     transform="translate(0,-796.36217)">
    <path
       style="fill:#4d4d4d;fill-rule:evenodd"
       inkscape:connector-curvature="0"
       clip-rule="evenodd"
       d="m 61.970414,968.59435 c -12.932964,5.4328 -25.870145,10.85969 -38.804802,16.28915 1.604416,3.1776 3.319104,6.29057 5.138171,9.33272 12.984322,-5.44878 25.966117,-10.90097 38.947904,-16.35733 0.686044,-0.3182 1.447847,-0.37376 2.195339,-0.3628 4.639002,0.0185 4.060705,0.0135 8.700548,0.016 v -10.62483 c -5.351981,0.0118 -5.48919,0.006 -10.843697,0 -1.93439,-0.0969 -3.577528,1.09009 -5.333463,1.70711"
       id="path3" />
    <path
       style="fill:#4d4d4d;fill-rule:evenodd"
       inkscape:connector-curvature="0"
       clip-rule="evenodd"
       d="m 172.15405,915.82455 c 4.08849,0.0252 8.17865,0.0135 12.26714,0.003 -2.29972,-4.61796 -4.58765,-9.24181 -6.90673,-13.84798 -0.46718,-1.03454 -1.4891,-1.76099 -2.62549,-1.82327 -1.24245,-0.10944 -2.29635,0.64984 -3.35698,1.16585 -3.56911,1.80055 -7.16769,3.54301 -10.73595,5.35029 3.7745,3.06574 7.56837,6.10453 11.35801,9.15174"
       id="path5" />
    <path
       style="fill:#4d4d4d;fill-rule:evenodd"
       inkscape:connector-curvature="0"
       clip-rule="evenodd"
       d="m 167.14636,915.82455 c -4.506,-3.65412 -9.03726,-7.27795 -13.54999,-10.9245 -0.88554,-0.74833 -1.83675,-1.5657 -3.04889,-1.64988 -1.01687,0.0152 -2.01016,0.51601 -2.62886,1.32663 -3.0127,3.75431 -6.08348,7.46399 -9.05914,11.25365 9.42868,0.007 18.8582,0.0168 28.28688,-0.006"
       id="path7" />
    <path
       style="fill:#4d4d4d;fill-rule:evenodd"
       inkscape:connector-curvature="0"
       clip-rule="evenodd"
       d="m 189.29589,919.11757 c -2.18187,-0.2862 -4.38648,-0.0959 -6.57676,-0.15658 -16.68391,0.0152 -33.36782,-0.0127 -50.05088,0.0135 -0.68941,-2.05645 -1.62041,-4.03125 -2.74754,-5.88146 -1.80139,-2.90327 -4.50179,-5.51781 -7.95053,-6.22069 -2.00089,-0.55473 -4.0969,-0.43351 -6.15082,-0.47729 -1.24582,0.0867 -2.59265,-0.19276 -3.74082,0.42931 -1.29633,0.67846 -1.86117,2.36201 -1.40071,3.72231 0.383,1.34178 1.80727,2.19786 3.16336,2.16672 1.63641,-0.059 3.27366,0.0127 4.91174,-0.0101 1.69112,-0.007 3.40581,0.66079 4.52789,1.94954 1.56738,1.66334 2.47312,3.81154 3.29975,5.91007 3.00428,8.62311 6.03465,17.2378 9.04566,25.86006 1.26266,3.5548 2.43189,7.14916 3.92772,10.61894 1.08672,2.30477 2.25762,4.67183 4.21053,6.38316 2.06149,1.93438 4.96813,2.68188 7.73924,2.64316 11.06088,0 22.11838,0.003 33.17673,-0.002 0.72646,0.0118 1.48152,0.0985 2.17515,-0.17425 0.91247,-0.30893 1.66839,-1.0539 1.96889,-1.97143 0.67595,-1.69448 -0.58756,-3.82585 -2.39652,-4.06659 -1.7593,-0.19866 -3.53123,-0.004 -5.29642,-0.0799 -9.6728,0.0101 -19.34306,-0.003 -29.01249,0.007 -1.45964,0.0564 -3.09435,-0.0387 -4.22654,-1.08251 -1.46973,-1.41839 -2.20711,-3.36877 -3.03206,-5.18952 9.61051,0.004 19.22186,0.004 28.83236,-0.002 1.30895,0.0362 2.61874,0.0109 3.92854,-0.0648 2.52784,-0.16078 4.93615,-1.27528 6.85707,-2.89738 2.72734,-2.33001 4.52536,-5.51444 6.01445,-8.72579 1.90998,-4.51274 3.26776,-9.24602 4.24843,-14.04243 0.46297,-2.13473 0.1532,-4.51611 -1.19785,-6.28046 -1.01265,-1.34094 -2.62885,-2.08085 -4.24757,-2.37716 m -44.05073,15.53573 c -1.56738,0.12963 -3.1617,-1.12629 -3.29554,-2.71724 -0.24074,-1.54381 0.84261,-3.14654 2.38222,-3.44705 1.74415,-0.4596 3.6112,0.85439 3.81658,2.62716 0.28452,1.72311 -1.17932,3.45296 -2.90326,3.53713 m 6.27203,9.41858 c -1.71384,0.14479 -3.42517,-1.38135 -3.30058,-3.13729 -0.0682,-1.41669 1.02528,-2.75763 2.40409,-3.02953 1.74163,-0.45287 3.59774,0.85946 3.8065,2.62381 0.28872,1.72647 -1.18017,3.46472 -2.91001,3.54301 m 6.2914,-9.42447 c -1.85863,0.19866 -3.61203,-1.61789 -3.31237,-3.4723 0.1591,-1.40829 1.34179,-2.58425 2.74754,-2.74755 1.84601,-0.29378 3.66928,1.43943 3.47652,3.29638 -0.0883,1.5236 -1.39313,2.82161 -2.91169,2.92347 m 9.19046,6.49847 c -0.0901,1.46636 -1.30306,2.73745 -2.76269,2.90159 -1.84937,0.29967 -3.68022,-1.44533 -3.47736,-3.30732 0.0959,-1.46047 1.29969,-2.72397 2.75344,-2.89233 1.85021,-0.30387 3.6819,1.43438 3.48661,3.29806 m 3.16927,-6.51363 c -1.68017,0.11196 -3.17684,-1.45289 -3.14234,-3.1036 -0.0311,-1.41755 1.07495,-2.72397 2.43188,-3.05311 1.85106,-0.48991 3.94118,1.11788 3.80565,3.06152 0.0951,1.66418 -1.43606,3.18021 -3.09519,3.09519 m 6.26782,9.41774 c -1.67343,0.1069 -3.16337,-1.45457 -3.13222,-3.09856 -0.0345,-1.41838 1.07073,-2.72565 2.42598,-3.05562 1.8519,-0.49244 3.94622,1.11365 3.8107,3.0573 0.0969,1.67093 -1.43859,3.18948 -3.10446,3.09688 m 5.86295,-9.43794 c -1.60611,-0.14057 -2.83762,-1.72142 -2.70799,-3.30226 0.0674,-1.34263 1.10778,-2.54721 2.41505,-2.83004 1.70879,-0.43436 3.64908,0.84683 3.79638,2.6339 0.38217,1.95459 -1.55475,3.87973 -3.50344,3.4984"
       id="path9" />
    <path
       style="fill:#4d4d4d;fill-rule:evenodd"
       inkscape:connector-curvature="0"
       clip-rule="evenodd"
       d="m 148.28732,969.36458 c -3.30816,0.56146 -6.05571,3.53712 -6.31329,6.88989 -0.26684,2.25426 0.55726,4.61122 2.14905,6.22743 1.57327,1.68775 3.94538,2.56066 6.23668,2.36624 3.79806,-0.18854 7.10708,-3.59607 7.20388,-7.39163 0.13973,-2.27867 -0.79548,-4.59353 -2.48239,-6.12892 -1.77361,-1.70207 -4.38899,-2.4403 -6.79393,-1.96301"
       id="path11" />
    <path
       style="fill:#4d4d4d;fill-rule:evenodd"
       inkscape:connector-curvature="0"
       clip-rule="evenodd"
       d="m 184.21496,969.85448 c -1.41671,-0.64142 -3.01691,-0.76517 -4.53631,-0.4899 -3.30648,0.5623 -6.05233,3.53712 -6.31076,6.88736 -0.26684,2.25679 0.55978,4.61123 2.14904,6.22574 1.57327,1.69365 3.94791,2.56569 6.2451,2.37046 3.79555,-0.19026 7.10371,-3.60197 7.1963,-7.39919 0.21634,-3.19368 -1.78034,-6.39242 -4.74337,-7.59447"
       id="path13" />
    <path
       style="fill:#4d4d4d;fill-rule:evenodd"
       inkscape:connector-curvature="0"
       clip-rule="evenodd"
       d="m 186.4608,888.01916 c -1.26265,0 -2.80562,-0.5623 -3.78881,-1.31905 -0.56146,-0.44866 -1.1507,-0.67426 -1.7391,-0.67426 -1.3199,0 -2.38642,1.06653 -2.38642,2.41505 0,0.78537 0.39394,1.48657 1.2071,2.10358 1.06736,0.89818 2.55478,1.51687 4.43529,1.85274 v 0.81399 c 0,1.12209 0.95541,2.16167 2.04887,2.16167 1.1507,0 2.02026,-0.95456 2.02026,-2.16167 v -0.72982 c 3.4824,-0.56145 5.47487,-2.9462 5.47487,-5.86546 0,-1.60105 -0.5059,-2.86202 -1.48993,-3.78965 -0.98151,-0.92679 -2.69367,-1.68354 -5.13649,-2.245 -1.34683,-0.30809 -1.7391,-0.39395 -2.41251,-0.61703 -0.67511,-0.2542 -0.81484,-0.53368 -0.81484,-0.9554 0,-0.75759 0.78621,-1.31906 2.27362,-1.31906 1.09431,0 2.07834,0.22559 2.9462,0.67342 0.70288,0.33671 1.26434,0.50506 1.68523,0.50506 1.26265,0 2.21806,-0.98151 2.21806,-2.21722 0,-0.75676 -0.25337,-1.37377 -0.75927,-1.79635 -0.89733,-0.81399 -2.21639,-1.31821 -3.98494,-1.54295 v -0.50507 c 0,-1.2071 -0.86956,-2.16251 -2.02026,-2.16251 -1.09346,0 -2.04887,1.03875 -2.04887,2.16251 v 0.64563 c -3.11539,0.7012 -5.16511,2.83425 -5.16511,5.50098 0,1.76856 0.53284,3.08762 1.57243,3.95801 1.03791,0.86955 2.7509,1.54381 5.08009,2.04803 2.13389,0.44951 3.14233,0.81399 3.14233,1.68354 0,0.92679 -0.78453,1.37629 -2.3578,1.37629"
       id="path15" />
    <path
       style="fill:#4d4d4d;fill-rule:evenodd"
       inkscape:connector-curvature="0"
       clip-rule="evenodd"
       d="m 159.45425,884.9164 c -1.79717,0 -3.99252,-0.79716 -5.38733,-1.87631 -0.79884,-0.63806 -1.63641,-0.95793 -2.47481,-0.95793 -1.87546,0 -3.39234,1.51687 -3.39234,3.43358 0,1.11787 0.55894,2.11453 1.71553,2.9925 1.51688,1.27697 3.63224,2.15493 6.30571,2.6339 v 1.15743 c 0,1.596 1.35693,3.07331 2.91253,3.07331 1.63724,0 2.87381,-1.35694 2.87381,-3.07331 v -1.03705 c 4.94877,-0.79885 7.78217,-4.19119 7.78217,-8.34112 0,-2.27615 -0.71803,-4.07164 -2.11621,-5.38734 -1.3965,-1.31653 -3.83091,-2.39484 -7.30237,-3.19283 -1.91587,-0.43856 -2.47312,-0.5581 -3.43274,-0.87797 -0.95709,-0.35859 -1.15659,-0.75759 -1.15659,-1.35694 0,-1.07746 1.11787,-1.87631 3.2324,-1.87631 1.55559,0 2.95293,0.31988 4.19033,0.95794 0.9975,0.47897 1.7955,0.71803 2.39485,0.71803 1.79717,0 3.15326,-1.39733 3.15326,-3.15328 0,-1.07746 -0.36027,-1.95375 -1.07914,-2.55309 -1.27697,-1.15743 -3.15075,-1.87462 -5.66596,-2.19449 v -0.71887 c 0,-1.71637 -1.23657,-3.07247 -2.87381,-3.07247 -1.5556,0 -2.91253,1.47646 -2.91253,3.07247 v 0.91837 c -4.4294,0.99666 -7.34192,4.03124 -7.34192,7.82258 0,2.51268 0.75674,4.38899 2.23405,5.62556 1.47647,1.2374 3.91003,2.19617 7.2224,2.91421 3.03374,0.6389 4.47149,1.15743 4.47149,2.394 0,1.31821 -1.11787,1.95543 -3.35278,1.95543"
       id="path17" />
    <path
       style="fill:#4d4d4d;fill-rule:evenodd"
       inkscape:connector-curvature="0"
       clip-rule="evenodd"
       d="m 68.611989,859.521 c 5.418483,0.0143 11.425362,0.0219 17.637634,0.0252 5.734149,0.002 11.642533,0.002 17.434767,-8.5e-4 7.40927,-0.003 14.62409,-0.0101 21.02071,-0.0143 1.40407,-0.0185 2.28709,1.32495 2.8073,2.45966 1.17848,2.8696 1.32663,6.29476 -0.003,9.13742 -0.55641,1.27866 -1.83927,2.23911 -3.2829,2.08591 -6.08096,0.003 -13.24444,-0.0118 -20.54259,-0.0261 -5.889033,-0.009 -11.863927,-0.0168 -17.433082,-0.007 -3.309003,0.004 -6.473221,0.0143 -9.387432,0.0336 -2.14315,0.11448 -4.508528,-0.43941 -6.429449,0.7879 -2.134732,1.25087 -3.078358,4.12468 -2.155776,6.41514 0.773587,2.05139 2.90832,3.4563 5.103659,3.37382 4.260204,0.0295 8.515357,0.008 12.775561,-0.005 -0.222227,5.99089 -1.02696,12.00703 -2.942832,17.70667 -2.282042,7.033 -6.526252,13.55672 -12.607208,17.86911 -7.245966,5.20299 -16.30089,7.16768 -25.085616,7.44547 -2.95125,0.048 -5.44205,2.90916 -5.029582,5.84273 0.201183,2.71303 2.817408,4.89911 5.520335,4.69119 7.833524,-0.23906 15.715027,-1.6566 22.895327,-4.87469 6.86717,-2.99924 12.831119,-7.86635 17.343013,-13.83283 -8.41e-4,35.25758 -0.0025,70.51604 0.0092,105.77525 -0.06986,6.3655 2.548878,12.8159 7.487559,16.9238 4.120468,3.7249 9.777163,5.453 15.272253,5.3276 30.06049,0.037 60.1193,-0.01 90.17894,0 3.69875,0.033 7.42779,0.1203 11.09371,-0.4529 7.11044,-1.2358 13.2217,-6.4824 15.95409,-13.1064 2.06654,-5.3402 1.50593,-11.182 1.53707,-16.7798 0.0135,-15.2672 0.0176,-30.53694 0.0211,-45.80583 3.22063,0.0127 6.56414,0.2113 9.55411,-1.1911 3.87384,-1.66418 6.52794,-5.35114 7.7586,-9.29315 1.95544,-6.29561 1.05727,-13.4936 -2.68945,-18.96175 4.91594,-6.82844 4.86375,-16.69232 0.33334,-23.69922 -0.26348,-0.30388 -0.29126,-0.61281 -0.0733,-0.92089 4.76359,-7.00354 4.51105,-16.92382 -0.25674,-23.86169 4.1592,-5.8158 4.71308,-13.76128 2.12043,-20.32962 -1.4992,-3.84353 -4.43445,-7.299 -8.40173,-8.67698 -2.67851,-0.97056 -5.54306,-0.6953 -8.34364,-0.73066 0,-9.30325 0,-18.60651 0.005,-27.90977 -0.18855,-4.68109 0.40657,-9.41604 -0.54042,-14.04158 -1.45205,-7.67779 -7.55742,-14.26381 -15.10389,-16.28827 -2.63475,-0.77864 -5.41007,-0.92932 -8.14245,-0.90743 -32.17503,0.0438 -64.35005,-0.11869 -96.52507,0 -8.135716,0.0875 -16.03406,5.11292 -19.267302,12.63246 -2.851921,6.17102 -1.766035,13.10217 -1.981529,19.66798 8.41e-4,4.30903 0,8.61638 0,12.92456 -10.000242,0.003 -18.721834,0.0135 -21.558603,0.0278 -1.313163,-0.0278 -2.516054,0.59429 -3.502602,1.41165 -17.312708,14.13923 -34.619524,28.2793 -51.9280243,42.41938 -0.8240946,4.93867 -1.4074411,9.95815 -1.7357325,15.0475 19.4912128,-15.9179 38.9832668,-31.83664 58.4660538,-47.76463 0.686043,-0.72561 1.725631,-0.52273 2.620433,-0.54883 m 166.384506,97.48973 c -0.46045,1.25508 -1.33336,2.65411 -2.78626,2.84182 -1.46553,0.10691 -2.93779,0.064 -4.40584,0.0168 8.4e-4,-4.52116 0,-9.04231 0,-13.56346 1.60021,-0.0286 3.20799,-0.1187 4.80231,0.0674 1.14565,0.52105 1.7955,1.72226 2.23406,2.84686 0.89144,2.48155 0.98656,5.27287 0.15573,7.79061 m -7.1921,-35.00927 c 1.53623,-0.005 3.07752,-0.0741 4.61207,0.0421 1.12966,0.36448 1.79045,1.48067 2.26774,2.49838 1.0379,2.56066 1.17763,5.50349 0.33165,8.13739 -0.45287,1.25593 -1.27444,2.66169 -2.71387,2.87802 -1.49583,0.17088 -2.9984,0.117 -4.49675,0.0766 -8.4e-4,-4.54303 0,-9.08944 -8.4e-4,-13.63248 m 7.11887,-13.3345 c -0.47056,1.13554 -1.24751,2.44282 -2.58593,2.60865 -1.50677,0.12626 -3.02365,0.069 -4.53294,0.0455 -8.4e-4,-4.51695 -8.4e-4,-9.03642 -8.4e-4,-13.55336 1.64987,0.0101 3.31743,-0.14563 4.94204,0.13636 1.37377,0.76854 2.01689,2.34687 2.41757,3.7947 0.57241,2.27531 0.58082,4.75181 -0.2399,6.96819 m -7.11971,-35.22139 c 1.63471,0.008 3.28881,-0.14226 4.89743,0.16835 2.06066,1.20121 2.58256,3.83932 2.82498,6.02119 0.13048,2.50343 -0.18098,5.63314 -2.44619,7.1559 -1.68859,0.52695 -3.50935,0.25337 -5.27875,0.26431 8.4e-4,-4.53799 8.4e-4,-9.07429 0.002,-13.60975 m -91.74212,134.29112 -0.007,0.061 c 0,0.718 -0.29883,1.3872 -0.8847,1.9933 l -7.93202,8.2241 7.75272,8.1534 c 0.64733,0.6566 0.97477,1.3797 0.97477,2.1423 l 8.4e-4,0.2769 c -0.13047,0.9268 -0.6692,1.6575 -1.60021,2.1735 -0.7517,0.4142 -1.53454,0.6229 -2.32497,0.6229 -0.21717,0 -0.38805,0 -0.60944,-0.037 -1.04969,-0.1069 -1.85863,-0.4841 -2.4748,-1.1575 l -6.68451,-7.054 -6.73333,7.0161 c -0.63217,0.6828 -1.52444,1.0851 -2.66588,1.1979 -0.20792,0.035 -0.37038,0.035 -0.5943,0.035 -0.84935,0 -1.57495,-0.213 -2.20964,-0.6439 -0.81821,-0.6213 -1.27781,-1.3402 -1.40155,-2.1928 l -0.0135,-0.048 c -0.0295,-0.077 -0.0295,-0.2071 -0.0295,-0.303 0,-0.7164 0.29631,-1.3857 0.88387,-1.9917 l 7.88823,-8.1483 -7.84447,-8.2662 c -0.62459,-0.6381 -0.92763,-1.314 -0.92763,-2.0675 0,-0.1069 0,-0.1977 0.043,-0.3509 0.12794,-0.9109 0.65321,-1.6584 1.56233,-2.2181 0.74749,-0.4487 1.47057,-0.6591 2.27446,-0.6591 0.17256,0 0.31482,0.026 0.49496,0.059 l 0.10438,0.016 c 1.0539,0.1489 1.90493,0.5648 2.52784,1.2356 l 6.72912,7.1324 6.86128,-7.129 c 0.71045,-0.708 1.60609,-1.1263 2.68356,-1.2408 0.15657,-0.035 0.31904,-0.035 0.45034,-0.035 0.83252,0 1.60863,0.245 2.30899,0.7299 0.79715,0.5345 1.26602,1.2441 1.39902,2.1389 0.0328,0.112 0.0328,0.2222 -0.002,0.3359 m 68.52018,3.5759 -19.21932,19.2184 c -0.77443,0.7745 -2.12211,0.7745 -2.89401,0 l -10.76121,-10.7654 c -0.38805,-0.3856 -0.60018,-0.8998 -0.60018,-1.4453 0,-0.5455 0.21213,-1.0607 0.60018,-1.4462 l 3.07331,-3.0742 c 0.38637,-0.3872 0.89901,-0.6009 1.44701,-0.6009 0.54547,0 1.05979,0.2137 1.44532,0.6001 l 5.38229,5.3832 c 0.4756,0.4747 1.24497,0.4747 1.72057,0 l 13.83872,-13.8388 c 0.77191,-0.7736 2.11874,-0.7719 2.89148,0 l 3.07584,3.0742 c 0.79547,0.7971 0.79547,2.0943 0,2.8914 M 141.60702,818.33987 h 34.7761 c 2.40157,0 4.3469,1.94702 4.3469,4.34775 0,2.40073 -1.94617,4.34691 -4.3469,4.34691 h -34.7761 c -2.40073,0 -4.3469,-1.94618 -4.3469,-4.34691 0,-2.40073 1.94701,-4.34775 4.3469,-4.34775 m -37.92095,21.72022 c 35.56652,-0.0109 71.13135,0.0109 106.69787,-0.0109 -0.0328,54.02825 -0.0219,98.92832 -0.006,152.9633 -35.57156,-0.0274 -71.14229,0 -106.71301,-0.0162 0.0345,-39.44454 0.0211,-69.75589 0.0176,-109.19791 6.05233,-0.009 14.566,0.002 19.2614,0.002 3.02953,0.10354 6.18954,-0.3224 8.79314,-1.97479 4.10869,-2.52447 6.37305,-7.23334 7.02879,-11.88329 0.77527,-5.69542 -0.4293,-11.89254 -4.16845,-16.38424 -2.30898,-2.81235 -5.84273,-4.53714 -9.48087,-4.61121 -2.53036,-0.0143 -11.29067,-0.0219 -21.43149,-0.0236 8.4e-4,-2.95377 8.4e-4,-5.91007 8.4e-4,-8.86301"
       id="path19" />
  </g>
</svg>
